# xmcd
#
# Track frame offsets:
#	150
#	12785
#	27762
#	39799
#	58420
#	71425
#	81664
#	92785
#	101806
#	113759
#	129770
#	142906
#	153095
#	163180
#	176172
#	197680
#	205339
#
# Disc length: 2936 seconds
# Revision: 5
# Processed by: cddbd v1.5.2PL0 Copyright (c) Steve Scherf et al.
# Submitted via: dBpowerAMP V12.0
#
DISCID=e10b7611
DTITLE=Various Artist - Country Classics (Vol. 2)
DYEAR=1900
DGENRE=Country
TTITLE0=Johnny Cash - Ring of fire
TTITLE1=Willy Nelson - Face of a fighter
TTITLE2=Billy Jo Spears - Misty Blue
TTITLE3=John Denver - Tenderly calling
TTITLE4=George Jones - The old rugged cross
TTITLE5=Johnny Cash - If I where a carpenter
TTITLE6=Brenda Lee - That's all you gotta do
TTITLE7=Dave Dudley - Keep on trucking
TTITLE8=Kenny Rogers - Me and Bobby McGee
TTITLE9=Jerry Lee Lewis - Middle aged crazy
TTITLE10=Jack Greene - California turn around
TTITLE11=Don Gibson - Sea of a heartbreak
TTITLE12=Brenda Lee - Good old acapellla (Soul to soul)
TTITLE13=Ernest Tubb - Do what you do, do well
TTITLE14=John Denver - The gift you are
TTITLE15=Willie Nelson - If you've got the money
TTITLE16=Lynn Anderson - Desperado
EXTD=
EXTT0=
EXTT1=
EXTT2=
EXTT3=
EXTT4=
EXTT5=
EXTT6=
EXTT7=
EXTT8=
EXTT9=
EXTT10=
EXTT11=
EXTT12=
EXTT13=
EXTT14=
EXTT15=
EXTT16=
PLAYORDER=
